{
  "accessors": [
    {
      "bufferView": 2,
      "componentType": 5126,
      "count": 25179,
      "max": [
        1.0503367185592651,
        0.9617067575454712,
        1.109965443611145
      ],
      "min": [
        -1.0389119386672974,
        -1.2640451192855835,
        -0.9834681749343872
      ],
      "type": "VEC3"
    },
    {
      "bufferView": 2,
      "byteOffset": 302148,
      "componentType": 5126,
      "count": 25179,
      "max": [
        0.9998059868812561,
        0.9999903440475464,
        0.9991799592971802
      ],
      "min": [
        -0.9999455809593201,
        -0.9999881982803345,
        -0.9995046854019165
      ],
      "type": "VEC3"
    },
    {
      "bufferView": 1,
      "componentType": 5126,
      "count": 25179,
      "max": [
        0.9160988330841064,
        0.9755921959877014
      ],
      "min": [
        0.0,
        0.0
      ],
      "type": "VEC2"
    },
    {
      "bufferView": 0,
      "componentType": 5125,
      "count": 27561,
      "type": "SCALAR"
    }
  ],
  "asset": {
    "extras": {
      "author": "Jacobs Development (https://sketchfab.com/Jacobs_Development)",
      "license": "CC-BY-4.0 (http://creativecommons.org/licenses/by/4.0/)",
      "source": "https://sketchfab.com/3d-models/low-poly-planet-earth-7b1dc4f802a54a6297e7a46888a85f77",
      "title": "Low Poly Planet Earth"
    },
    "generator": "Sketchfab-14.60.0",
    "version": "2.0"
  },
  "bufferViews": [
    {
      "buffer": 0,
      "byteLength": 110244,
      "name": "floatBufferViews",
      "target": 34963
    },
    {
      "buffer": 0,
      "byteLength": 201432,
      "byteOffset": 110244,
      "byteStride": 8,
      "name": "floatBufferViews",
      "target": 34962
    },
    {
      "buffer": 0,
      "byteLength": 604296,
      "byteOffset": 311676,
      "byteStride": 12,
      "name": "floatBufferViews",
      "target": 34962
    }
  ],
  "buffers": [
    {
      "byteLength": 915972,
      "uri": "scene.bin"
    }
  ],
  "images": [
    {
      "uri": "textures/Planet_baseColor.png"
    }
  ],
  "materials": [
    {
      "doubleSided": true,
      "name": "Planet",
      "pbrMetallicRoughness": {
        "baseColorTexture": {
          "index": 0
        },
        "metallicFactor": 0.0,
        "roughnessFactor": 0.1788854381999832
      }
    }
  ],
  "meshes": [
    {
      "name": "Object_Planet_0",
      "primitives": [
        {
          "attributes": {
            "NORMAL": 1,
            "POSITION": 0,
            "TEXCOORD_0": 2
          },
          "indices": 3,
          "material": 0,
          "mode": 4
        }
      ]
    }
  ],
  "nodes": [
    {
      "children": [
        1
      ],
      "matrix": [
        1.0,
        0.0,
        0.0,
        0.0,
        0.0,
        2.220446049250313e-16,
        -1.0,
        0.0,
        0.0,
        1.0,
        2.220446049250313e-16,
        0.0,
        0.0,
        0.0,
        0.0,
        1.0
      ],
      "name": "Sketchfab_model"
    },
    {
      "children": [
        2
      ],
      "matrix": [
        1.0,
        0.0,
        0.0,
        0.0,
        0.0,
        0.0,
        1.0,
        0.0,
        0.0,
        -1.0,
        0.0,
        0.0,
        0.0,
        0.0,
        0.0,
        1.0
      ],
      "name": "020eaa661cb54dc9aa40e5ad87795ee1.fbx"
    },
    {
      "children": [
        3
      ],
      "name": "RootNode"
    },
    {
      "children": [
        4
      ],
      "matrix": [
        -0.9999999999999964,
        1.2246467991473515e-16,
        8.742278000372476e-08,
        0.0,
        -3.698906412640348e-15,
        0.999999999999999,
        -4.371138840920244e-08,
        0.0,
        -8.742278000372468e-08,
        -4.37113884092026e-08,
        -0.9999999999999956,
        0.0,
        -0.0454736091196537,
        1.247294306755066,
        0.06629405915737152,
        1.0
      ],
      "name": "Object"
    },
    {
      "mesh": 0,
      "name": "Object_Planet_0"
    }
  ],
  "samplers": [
    {
      "magFilter": 9729,
      "minFilter": 9987,
      "wrapS": 10497,
      "wrapT": 10497
    }
  ],
  "scene": 0,
  "scenes": [
    {
      "name": "Sketchfab_Scene",
      "nodes": [
        0
      ]
    }
  ],
  "textures": [
    {
      "sampler": 0,
      "source": 0
    }
  ]
}
