{
  "accessors": [
    {
      "bufferView": 2,
      "componentType": 5126,
      "count": 1049,
      "max": [30.154890060424805, 29.64535140991211, 22.80278968811035],
      "min": [26.374223709106445, 25.843212127685547, 19.020681381225586],
      "type": "VEC3"
    },
    {
      "bufferView": 2,
      "byteOffset": 12588,
      "componentType": 5126,
      "count": 1049,
      "max": [0.9998692274093628, 1.0, 1.0],
      "min": [-0.9998692274093628, -1.0, -1.0],
      "type": "VEC3"
    },
    {
      "bufferView": 1,
      "componentType": 5126,
      "count": 1049,
      "max": [0.9827209711074829, 0.48598599433898926],
      "min": [0.017278999090194702, 0.02992900088429451],
      "type": "VEC2"
    },
    {
      "bufferView": 0,
      "componentType": 5125,
      "count": 5760,
      "type": "SCALAR"
    },
    {
      "bufferView": 2,
      "byteOffset": 25176,
      "componentType": 5126,
      "count": 2529,
      "max": [2.8095409870147705, 28.88107681274414, 33.38666534423828],
      "min": [-11.377872467041016, 25.810955047607422, 18.35776138305664],
      "type": "VEC3"
    },
    {
      "bufferView": 2,
      "byteOffset": 55524,
      "componentType": 5126,
      "count": 2529,
      "max": [0.9994511008262634, 1.0, 0.9999370574951172],
      "min": [-0.9999971389770508, -1.0, -0.9988191723823547],
      "type": "VEC3"
    },
    {
      "bufferView": 1,
      "byteOffset": 8392,
      "componentType": 5126,
      "count": 2529,
      "max": [0.9893640279769897, 0.989978015422821],
      "min": [0.010023999959230423, 0.01002500019967556],
      "type": "VEC2"
    },
    {
      "bufferView": 0,
      "byteOffset": 23040,
      "componentType": 5125,
      "count": 11736,
      "type": "SCALAR"
    },
    {
      "bufferView": 2,
      "byteOffset": 85872,
      "componentType": 5126,
      "count": 2705,
      "max": [38.75946807861328, 27.336767196655273, 37.49095916748047],
      "min": [-38.11749267578125, 25.64380645751953, -6.153900146484375],
      "type": "VEC3"
    },
    {
      "bufferView": 2,
      "byteOffset": 118332,
      "componentType": 5126,
      "count": 2705,
      "max": [0.9998138546943665, 1.0, 0.9998411536216736],
      "min": [-0.9997886419296265, 0.0164242722094059, -0.9998411536216736],
      "type": "VEC3"
    },
    {
      "bufferView": 1,
      "byteOffset": 28624,
      "componentType": 5126,
      "count": 2705,
      "max": [0.994392991065979, 0.991599977016449],
      "min": [0.00559900002554059, 0.005626999773085117],
      "type": "VEC2"
    },
    {
      "bufferView": 0,
      "byteOffset": 69984,
      "componentType": 5125,
      "count": 11808,
      "type": "SCALAR"
    },
    {
      "bufferView": 2,
      "byteOffset": 150792,
      "componentType": 5126,
      "count": 1025,
      "max": [42.668025970458984, 25.814346313476563, 42.55747604370117],
      "min": [-42.66801452636719, 22.77568244934082, -42.778568267822266],
      "type": "VEC3"
    },
    {
      "bufferView": 2,
      "byteOffset": 163092,
      "componentType": 5126,
      "count": 1025,
      "max": [0.9999979734420776, 1.0, 0.9999980330467224],
      "min": [-0.9999980330467224, 0.002013827208429575, -0.9999980330467224],
      "type": "VEC3"
    },
    {
      "bufferView": 1,
      "byteOffset": 50264,
      "componentType": 5126,
      "count": 1025,
      "max": [0.9886029958724976, 0.9890919923782349],
      "min": [0.010901999659836292, 0.01090800017118454],
      "type": "VEC2"
    },
    {
      "bufferView": 0,
      "byteOffset": 117216,
      "componentType": 5125,
      "count": 5760,
      "type": "SCALAR"
    },
    {
      "bufferView": 2,
      "byteOffset": 175392,
      "componentType": 5126,
      "count": 542,
      "max": [-68.51111602783203, 43.35452651977539, -0.9618510007858276],
      "min": [-74.50110626220703, 24.600116729736328, -6.95183801651001],
      "type": "VEC3"
    },
    {
      "bufferView": 2,
      "byteOffset": 181896,
      "componentType": 5126,
      "count": 542,
      "max": [1.0, 1.0, 1.0],
      "min": [-1.0, -1.0, -1.0],
      "type": "VEC3"
    },
    {
      "bufferView": 1,
      "byteOffset": 58464,
      "componentType": 5126,
      "count": 542,
      "max": [0.9979180097579956, 0.9982270002365112],
      "min": [0.0017839999636635184, 0.0017709999810904264],
      "type": "VEC2"
    },
    {
      "bufferView": 0,
      "byteOffset": 140256,
      "componentType": 5125,
      "count": 2904,
      "type": "SCALAR"
    },
    {
      "bufferView": 2,
      "byteOffset": 188400,
      "componentType": 5126,
      "count": 21531,
      "max": [25.558874130249023, 47.99671173095703, 15.095878601074219],
      "min": [-72.73151397705078, 25.67864990234375, -20.148380279541016],
      "type": "VEC3"
    },
    {
      "bufferView": 2,
      "byteOffset": 446772,
      "componentType": 5126,
      "count": 21531,
      "max": [1.0, 1.0, 1.0],
      "min": [-1.0, -1.0, -1.0],
      "type": "VEC3"
    },
    {
      "bufferView": 1,
      "byteOffset": 62800,
      "componentType": 5126,
      "count": 21531,
      "max": [0.9932540059089661, 0.9942119717597961],
      "min": [0.005779999773949385, 0.005781000014394522],
      "type": "VEC2"
    },
    {
      "bufferView": 0,
      "byteOffset": 151872,
      "componentType": 5125,
      "count": 94476,
      "type": "SCALAR"
    },
    {
      "bufferView": 2,
      "byteOffset": 705144,
      "componentType": 5126,
      "count": 1227,
      "max": [29.41858673095703, 79.61683654785156, -28.88755989074707],
      "min": [-12.284505844116211, 24.534820556640625, -32.1910514831543],
      "type": "VEC3"
    },
    {
      "bufferView": 2,
      "byteOffset": 719868,
      "componentType": 5126,
      "count": 1227,
      "max": [0.9999995827674866, 0.9999855756759644, 1.0],
      "min": [-0.9999995231628418, -0.9999855756759644, -1.0],
      "type": "VEC3"
    },
    {
      "bufferView": 1,
      "byteOffset": 235048,
      "componentType": 5126,
      "count": 1227,
      "max": [0.9875419735908508, 0.9926890134811401],
      "min": [0.007309999782592058, 0.007306999992579222],
      "type": "VEC2"
    },
    {
      "bufferView": 0,
      "byteOffset": 529776,
      "componentType": 5125,
      "count": 4272,
      "type": "SCALAR"
    },
    {
      "bufferView": 2,
      "byteOffset": 734592,
      "componentType": 5126,
      "count": 7392,
      "max": [34.54450225830078, 43.08624267578125, 41.98451232910156],
      "min": [-22.620147705078125, 25.62692642211914, -1.647063970565796],
      "type": "VEC3"
    },
    {
      "bufferView": 2,
      "byteOffset": 823296,
      "componentType": 5126,
      "count": 7392,
      "max": [0.9998958706855774, 1.0, 0.9998958706855774],
      "min": [-0.9998960494995117, -1.0, -0.9998958110809326],
      "type": "VEC3"
    },
    {
      "bufferView": 1,
      "byteOffset": 244864,
      "componentType": 5126,
      "count": 7392,
      "max": [0.9935899972915649, 0.9949380159378052],
      "min": [0.005061000119894743, 0.005061999894678593],
      "type": "VEC2"
    },
    {
      "bufferView": 0,
      "byteOffset": 546864,
      "componentType": 5125,
      "count": 41088,
      "type": "SCALAR"
    },
    {
      "bufferView": 2,
      "byteOffset": 912000,
      "componentType": 5126,
      "count": 1386,
      "max": [46.962013244628906, 35.19967269897461, 62.877906799316406],
      "min": [-24.609222412109375, 4.953678131103516, -58.61662292480469],
      "type": "VEC3"
    },
    {
      "bufferView": 2,
      "byteOffset": 928632,
      "componentType": 5126,
      "count": 1386,
      "max": [0.901304304599762, 1.0, 0.9013044834136963],
      "min": [-0.901304304599762, -0.43319013714790344, -0.9013038873672485],
      "type": "VEC3"
    },
    {
      "bufferView": 1,
      "byteOffset": 304000,
      "componentType": 5126,
      "count": 1386,
      "max": [0.9915120005607605, 0.9875950217247009],
      "min": [0.008488000370562077, 0.00848700013011694],
      "type": "VEC2"
    },
    {
      "bufferView": 0,
      "byteOffset": 711216,
      "componentType": 5125,
      "count": 4032,
      "type": "SCALAR"
    },
    {
      "bufferView": 2,
      "byteOffset": 945264,
      "componentType": 5126,
      "count": 5113,
      "max": [69.23957061767578, 22.724746704101563, 69.2386245727539],
      "min": [-69.23860168457031, -70.08087158203125, -69.23953247070313],
      "type": "VEC3"
    },
    {
      "bufferView": 2,
      "byteOffset": 1006620,
      "componentType": 5126,
      "count": 5113,
      "max": [0.9999983906745911, 1.0, 0.9999983906745911],
      "min": [-0.9999983906745911, -0.9999978542327881, -0.9999983906745911],
      "type": "VEC3"
    },
    {
      "bufferView": 1,
      "byteOffset": 315088,
      "componentType": 5126,
      "count": 5113,
      "max": [0.9916719794273376, 0.9923419952392578],
      "min": [0.007658000104129314, 0.007656000088900328],
      "type": "VEC2"
    },
    {
      "bufferView": 0,
      "byteOffset": 727344,
      "componentType": 5125,
      "count": 26880,
      "type": "SCALAR"
    },
    {
      "bufferView": 2,
      "byteOffset": 1067976,
      "componentType": 5126,
      "count": 200,
      "max": [-1.062114953994751, 28.634998321533203, 11.237865447998047],
      "min": [-24.96843147277832, 25.50762367248535, -26.299633026123047],
      "type": "VEC3"
    },
    {
      "bufferView": 2,
      "byteOffset": 1070376,
      "componentType": 5126,
      "count": 200,
      "max": [1.0, 1.0, 1.0],
      "min": [-1.0, -1.8689662510951166e-6, -1.0],
      "type": "VEC3"
    },
    {
      "bufferView": 1,
      "byteOffset": 355992,
      "componentType": 5126,
      "count": 200,
      "max": [0.9892789721488953, 0.9827529788017273],
      "min": [0.010715000331401825, 0.010715000331401825],
      "type": "VEC2"
    },
    {
      "bufferView": 0,
      "byteOffset": 834864,
      "componentType": 5125,
      "count": 432,
      "type": "SCALAR"
    }
  ],
  "asset": {
    "extras": {
      "author": "junhapark1 (https://sketchfab.com/junhapark1)",
      "license": "CC-BY-NC-4.0 (http://creativecommons.org/licenses/by-nc/4.0/)",
      "source": "https://sketchfab.com/3d-models/resort-planet-d48adfb62ad04e69a603249df038be24",
      "title": "Resort Planet"
    },
    "generator": "Sketchfab-15.24.0",
    "version": "2.0"
  },
  "bufferViews": [
    {
      "buffer": 0,
      "byteLength": 836592,
      "name": "floatBufferViews",
      "target": 34963
    },
    {
      "buffer": 0,
      "byteLength": 357592,
      "byteOffset": 836592,
      "byteStride": 8,
      "name": "floatBufferViews",
      "target": 34962
    },
    {
      "buffer": 0,
      "byteLength": 1072776,
      "byteOffset": 1194184,
      "byteStride": 12,
      "name": "floatBufferViews",
      "target": 34962
    }
  ],
  "buffers": [
    {
      "byteLength": 2266960,
      "uri": "scene.bin"
    }
  ],
  "extensionsUsed": ["KHR_materials_unlit"],
  "images": [
    {
      "uri": "textures/Ball_baseColor.webp"
    },
    {
      "uri": "textures/chiar_baseColor.webp"
    },
    {
      "uri": "textures/grass_baseColor.webp"
    },
    {
      "uri": "textures/grassland_baseColor.webp"
    },
    {
      "uri": "textures/Lamp_baseColor.webp"
    },
    {
      "uri": "textures/Resort_baseColor.webp"
    },
    {
      "uri": "textures/Tree_baseColor.webp"
    },
    {
      "uri": "textures/Tree2_baseColor.webp"
    },
    {
      "uri": "textures/deco_baseColor.webp"
    },
    {
      "uri": "textures/planet_baseColor.webp"
    },
    {
      "uri": "textures/stair_baseColor.webp"
    }
  ],
  "materials": [
    {
      "doubleSided": true,
      "extensions": {
        "KHR_materials_unlit": {}
      },
      "name": "Ball",
      "pbrMetallicRoughness": {
        "baseColorTexture": {
          "index": 0
        },
        "metallicFactor": 0.0
      }
    },
    {
      "doubleSided": true,
      "extensions": {
        "KHR_materials_unlit": {}
      },
      "name": "chiar",
      "pbrMetallicRoughness": {
        "baseColorTexture": {
          "index": 1
        },
        "metallicFactor": 0.0
      }
    },
    {
      "doubleSided": true,
      "extensions": {
        "KHR_materials_unlit": {}
      },
      "name": "grass",
      "pbrMetallicRoughness": {
        "baseColorTexture": {
          "index": 2
        },
        "metallicFactor": 0.0
      }
    },
    {
      "doubleSided": true,
      "extensions": {
        "KHR_materials_unlit": {}
      },
      "name": "grassland",
      "pbrMetallicRoughness": {
        "baseColorTexture": {
          "index": 3
        },
        "metallicFactor": 0.0
      }
    },
    {
      "doubleSided": true,
      "extensions": {
        "KHR_materials_unlit": {}
      },
      "name": "Lamp",
      "pbrMetallicRoughness": {
        "baseColorTexture": {
          "index": 4
        },
        "metallicFactor": 0.0
      }
    },
    {
      "doubleSided": true,
      "extensions": {
        "KHR_materials_unlit": {}
      },
      "name": "Resort",
      "pbrMetallicRoughness": {
        "baseColorTexture": {
          "index": 5
        },
        "metallicFactor": 0.0
      }
    },
    {
      "doubleSided": true,
      "extensions": {
        "KHR_materials_unlit": {}
      },
      "name": "Tree",
      "pbrMetallicRoughness": {
        "baseColorTexture": {
          "index": 6
        },
        "metallicFactor": 0.0
      }
    },
    {
      "doubleSided": true,
      "extensions": {
        "KHR_materials_unlit": {}
      },
      "name": "Tree2",
      "pbrMetallicRoughness": {
        "baseColorTexture": {
          "index": 7
        },
        "metallicFactor": 0.0
      }
    },
    {
      "doubleSided": true,
      "extensions": {
        "KHR_materials_unlit": {}
      },
      "name": "deco",
      "pbrMetallicRoughness": {
        "baseColorTexture": {
          "index": 8
        },
        "metallicFactor": 0.0
      }
    },
    {
      "doubleSided": true,
      "extensions": {
        "KHR_materials_unlit": {}
      },
      "name": "planet",
      "pbrMetallicRoughness": {
        "baseColorTexture": {
          "index": 9
        },
        "metallicFactor": 0.0
      }
    },
    {
      "doubleSided": true,
      "extensions": {
        "KHR_materials_unlit": {}
      },
      "name": "stair",
      "pbrMetallicRoughness": {
        "baseColorTexture": {
          "index": 10
        },
        "metallicFactor": 0.0
      }
    }
  ],
  "meshes": [
    {
      "name": "Ball_Ball_0",
      "primitives": [
        {
          "attributes": {
            "NORMAL": 1,
            "POSITION": 0,
            "TEXCOORD_0": 2
          },
          "indices": 3,
          "material": 0,
          "mode": 4
        }
      ]
    },
    {
      "name": "chair_chiar_0",
      "primitives": [
        {
          "attributes": {
            "NORMAL": 5,
            "POSITION": 4,
            "TEXCOORD_0": 6
          },
          "indices": 7,
          "material": 1,
          "mode": 4
        }
      ]
    },
    {
      "name": "grass_grass_0",
      "primitives": [
        {
          "attributes": {
            "NORMAL": 9,
            "POSITION": 8,
            "TEXCOORD_0": 10
          },
          "indices": 11,
          "material": 2,
          "mode": 4
        }
      ]
    },
    {
      "name": "grassland_grassland_0",
      "primitives": [
        {
          "attributes": {
            "NORMAL": 13,
            "POSITION": 12,
            "TEXCOORD_0": 14
          },
          "indices": 15,
          "material": 3,
          "mode": 4
        }
      ]
    },
    {
      "name": "Lamp_Lamp_0",
      "primitives": [
        {
          "attributes": {
            "NORMAL": 17,
            "POSITION": 16,
            "TEXCOORD_0": 18
          },
          "indices": 19,
          "material": 4,
          "mode": 4
        }
      ]
    },
    {
      "name": "Resort_Resort_0",
      "primitives": [
        {
          "attributes": {
            "NORMAL": 21,
            "POSITION": 20,
            "TEXCOORD_0": 22
          },
          "indices": 23,
          "material": 5,
          "mode": 4
        }
      ]
    },
    {
      "name": "Tree_Tree_0",
      "primitives": [
        {
          "attributes": {
            "NORMAL": 25,
            "POSITION": 24,
            "TEXCOORD_0": 26
          },
          "indices": 27,
          "material": 6,
          "mode": 4
        }
      ]
    },
    {
      "name": "Tree2_Tree2_0",
      "primitives": [
        {
          "attributes": {
            "NORMAL": 29,
            "POSITION": 28,
            "TEXCOORD_0": 30
          },
          "indices": 31,
          "material": 7,
          "mode": 4
        }
      ]
    },
    {
      "name": "deco_deco_0",
      "primitives": [
        {
          "attributes": {
            "NORMAL": 33,
            "POSITION": 32,
            "TEXCOORD_0": 34
          },
          "indices": 35,
          "material": 8,
          "mode": 4
        }
      ]
    },
    {
      "name": "planet_planet_0",
      "primitives": [
        {
          "attributes": {
            "NORMAL": 37,
            "POSITION": 36,
            "TEXCOORD_0": 38
          },
          "indices": 39,
          "material": 9,
          "mode": 4
        }
      ]
    },
    {
      "name": "stair_stair_0",
      "primitives": [
        {
          "attributes": {
            "NORMAL": 41,
            "POSITION": 40,
            "TEXCOORD_0": 42
          },
          "indices": 43,
          "material": 10,
          "mode": 4
        }
      ]
    }
  ],
  "nodes": [
    {
      "children": [1],
      "matrix": [
        0.010147972963750362, 0.0, 0.0, 0.0, 0.0, 2.2533026475258483e-18,
        -0.010147972963750362, 0.0, 0.0, 0.010147972963750362,
        2.2533026475258483e-18, 0.0, 0.0, 0.0, 0.0, 1.0
      ],
      "name": "Sketchfab_model"
    },
    {
      "children": [2],
      "matrix": [
        0.009999999776482582, 0.0, 0.0, 0.0, 0.0, 0.0, 0.009999999776482582,
        0.0, 0.0, -0.009999999776482582, 0.0, 0.0, 0.0, 0.0, 0.0, 1.0
      ],
      "name": "Resort_Planet.fbx"
    },
    {
      "children": [3, 5, 7, 9, 11, 13, 15, 17, 19, 21, 23],
      "name": "RootNode"
    },
    {
      "children": [4],
      "matrix": [
        100.0, 0.0, 0.0, 0.0, 0.0, 99.99999999999866, 1.6292067073209114e-5,
        0.0, 0.0, -1.6292067073209114e-5, 99.99999999999866, 0.0, 0.0, 0.0, 0.0,
        1.0
      ],
      "name": "Ball"
    },
    {
      "mesh": 0,
      "name": "Ball_Ball_0"
    },
    {
      "children": [6],
      "matrix": [
        100.0, 0.0, 0.0, 0.0, 0.0, 99.99999999999866, 1.6292067073209114e-5,
        0.0, 0.0, -1.6292067073209114e-5, 99.99999999999866, 0.0, 0.0, 0.0, 0.0,
        1.0
      ],
      "name": "chair"
    },
    {
      "mesh": 1,
      "name": "chair_chiar_0"
    },
    {
      "children": [8],
      "matrix": [
        100.0, 0.0, 0.0, 0.0, 0.0, 99.99999999999866, 1.6292067073209114e-5,
        0.0, 0.0, -1.6292067073209114e-5, 99.99999999999866, 0.0, 0.0, 0.0, 0.0,
        1.0
      ],
      "name": "grass"
    },
    {
      "mesh": 2,
      "name": "grass_grass_0"
    },
    {
      "children": [10],
      "matrix": [
        100.0, 0.0, 0.0, 0.0, 0.0, 99.99999999999866, 1.6292067073209114e-5,
        0.0, 0.0, -1.6292067073209114e-5, 99.99999999999866, 0.0, 0.0, 0.0, 0.0,
        1.0
      ],
      "name": "grassland"
    },
    {
      "mesh": 3,
      "name": "grassland_grassland_0"
    },
    {
      "children": [12],
      "matrix": [
        100.0, 0.0, 0.0, 0.0, 0.0, 99.99999999999866, 1.6292067073209114e-5,
        0.0, 0.0, -1.6292067073209114e-5, 99.99999999999866, 0.0, 0.0, 0.0, 0.0,
        1.0
      ],
      "name": "Lamp"
    },
    {
      "mesh": 4,
      "name": "Lamp_Lamp_0"
    },
    {
      "children": [14],
      "matrix": [
        100.0, 0.0, 0.0, 0.0, 0.0, 99.99999999999866, 1.6292067073209114e-5,
        0.0, 0.0, -1.6292067073209114e-5, 99.99999999999866, 0.0, 0.0, 0.0, 0.0,
        1.0
      ],
      "name": "Resort"
    },
    {
      "mesh": 5,
      "name": "Resort_Resort_0"
    },
    {
      "children": [16],
      "matrix": [
        100.0, 0.0, 0.0, 0.0, 0.0, 99.99999999999866, 1.6292067073209114e-5,
        0.0, 0.0, -1.6292067073209114e-5, 99.99999999999866, 0.0, 0.0, 0.0, 0.0,
        1.0
      ],
      "name": "Tree"
    },
    {
      "mesh": 6,
      "name": "Tree_Tree_0"
    },
    {
      "children": [18],
      "matrix": [
        100.0, 0.0, 0.0, 0.0, 0.0, 99.99999999999866, 1.6292067073209114e-5,
        0.0, 0.0, -1.6292067073209114e-5, 99.99999999999866, 0.0, 0.0, 0.0, 0.0,
        1.0
      ],
      "name": "Tree2"
    },
    {
      "mesh": 7,
      "name": "Tree2_Tree2_0"
    },
    {
      "children": [20],
      "matrix": [
        100.0, 0.0, 0.0, 0.0, 0.0, 99.99999999999866, 1.6292067073209114e-5,
        0.0, 0.0, -1.6292067073209114e-5, 99.99999999999866, 0.0, 0.0, 0.0, 0.0,
        1.0
      ],
      "name": "deco"
    },
    {
      "mesh": 8,
      "name": "deco_deco_0"
    },
    {
      "children": [22],
      "matrix": [
        100.0, 0.0, 0.0, 0.0, 0.0, 99.99999999999866, 1.6292067073209114e-5,
        0.0, 0.0, -1.6292067073209114e-5, 99.99999999999866, 0.0, 0.0, 0.0, 0.0,
        1.0
      ],
      "name": "planet"
    },
    {
      "mesh": 9,
      "name": "planet_planet_0"
    },
    {
      "children": [24],
      "matrix": [
        100.0, 0.0, 0.0, 0.0, 0.0, 99.99999999999866, 1.6292067073209114e-5,
        0.0, 0.0, -1.6292067073209114e-5, 99.99999999999866, 0.0, 0.0, 0.0, 0.0,
        1.0
      ],
      "name": "stair"
    },
    {
      "mesh": 10,
      "name": "stair_stair_0"
    }
  ],
  "samplers": [
    {
      "magFilter": 9729,
      "minFilter": 9987,
      "wrapS": 10497,
      "wrapT": 10497
    }
  ],
  "scene": 0,
  "scenes": [
    {
      "name": "Sketchfab_Scene",
      "nodes": [0]
    }
  ],
  "textures": [
    {
      "sampler": 0,
      "source": 0
    },
    {
      "sampler": 0,
      "source": 1
    },
    {
      "sampler": 0,
      "source": 2
    },
    {
      "sampler": 0,
      "source": 3
    },
    {
      "sampler": 0,
      "source": 4
    },
    {
      "sampler": 0,
      "source": 5
    },
    {
      "sampler": 0,
      "source": 6
    },
    {
      "sampler": 0,
      "source": 7
    },
    {
      "sampler": 0,
      "source": 8
    },
    {
      "sampler": 0,
      "source": 9
    },
    {
      "sampler": 0,
      "source": 10
    }
  ]
}
