{
  "accessors": [
    {
      "bufferView": 2,
      "componentType": 5126,
      "count": 65532,
      "max": [41.26761245727539, 18.705291748046875, 39.0182991027832],
      "min": [-30.04747772216797, -27.94390296936035, -38.80071258544922],
      "type": "VEC3"
    },
    {
      "bufferView": 2,
      "byteOffset": 786384,
      "componentType": 5126,
      "count": 65532,
      "max": [0.9999843239784241, 0.9999935030937195, 0.9997747540473938],
      "min": [-0.9976367950439453, -0.9999482035636902, -0.9993523955345154],
      "type": "VEC3"
    },
    {
      "bufferView": 1,
      "componentType": 5126,
      "count": 65532,
      "max": [0.9937499761581421, 0.9882649779319763],
      "min": [0.0286250002682209, 0.058789998292922974],
      "type": "VEC2"
    },
    {
      "bufferView": 0,
      "componentType": 5125,
      "count": 370107,
      "type": "SCALAR"
    },
    {
      "bufferView": 2,
      "byteOffset": 1572768,
      "componentType": 5126,
      "count": 43398,
      "max": [40.70512008666992, 23.272045135498047, 36.243961334228516],
      "min": [-32.633460998535156, -27.94390296936035, -38.80071258544922],
      "type": "VEC3"
    },
    {
      "bufferView": 2,
      "byteOffset": 2093544,
      "componentType": 5126,
      "count": 43398,
      "max": [0.99564528465271, 0.999991774559021, 0.9999780058860779],
      "min": [-0.9999518394470215, -0.9999482035636902, -0.9999753832817078],
      "type": "VEC3"
    },
    {
      "bufferView": 1,
      "byteOffset": 524256,
      "componentType": 5126,
      "count": 43398,
      "max": [0.9408619999885559, 0.9992910027503967],
      "min": [0.0007089999853633344, 0.18734100461006165],
      "type": "VEC2"
    },
    {
      "bufferView": 0,
      "byteOffset": 1480428,
      "componentType": 5125,
      "count": 229893,
      "type": "SCALAR"
    }
  ],
  "asset": {
    "extras": {
      "author": "Natural History Museum Vienna (https://sketchfab.com/NHMWien)",
      "license": "CC-BY-NC-4.0 (http://creativecommons.org/licenses/by-nc/4.0/)",
      "source": "https://sketchfab.com/3d-models/barbotan-meteorite-nhmw-min-a143-30addb6f75c44df6957e1932cf9ac406",
      "title": "Barbotan meteorite (NHMW-MIN-A143)"
    },
    "generator": "Sketchfab-16.16.0",
    "version": "2.0"
  },
  "bufferViews": [
    {
      "buffer": 0,
      "byteLength": 2400000,
      "name": "floatBufferViews",
      "target": 34963
    },
    {
      "buffer": 0,
      "byteLength": 871440,
      "byteOffset": 2400000,
      "byteStride": 8,
      "name": "floatBufferViews",
      "target": 34962
    },
    {
      "buffer": 0,
      "byteLength": 2614320,
      "byteOffset": 3271440,
      "byteStride": 12,
      "name": "floatBufferViews",
      "target": 34962
    }
  ],
  "buffers": [
    {
      "byteLength": 5885760,
      "uri": "scene.bin"
    }
  ],
  "images": [
    {
      "uri": "textures/material_0_baseColor.webp"
    }
  ],
  "materials": [
    {
      "doubleSided": true,
      "name": "material_0",
      "pbrMetallicRoughness": {
        "baseColorTexture": {
          "index": 0
        },
        "metallicFactor": 0.0,
        "roughnessFactor": 0.6047517882031922
      }
    }
  ],
  "meshes": [
    {
      "name": "Object_0",
      "primitives": [
        {
          "attributes": {
            "NORMAL": 1,
            "POSITION": 0,
            "TEXCOORD_0": 2
          },
          "indices": 3,
          "material": 0,
          "mode": 4
        }
      ]
    },
    {
      "name": "Object_1",
      "primitives": [
        {
          "attributes": {
            "NORMAL": 5,
            "POSITION": 4,
            "TEXCOORD_0": 6
          },
          "indices": 7,
          "material": 0,
          "mode": 4
        }
      ]
    }
  ],
  "nodes": [
    {
      "children": [1],
      "matrix": [
        0.5398823618888855, 0.09849633276462537, 0.8359578251838684, 0.0,
        0.4567469656467438, -0.868486225605011, -0.19264957308769246, 0.0,
        0.7070425748825073, 0.48582929372787487, -0.5138683319091796, 0.0, 0.0,
        0.0, 0.0, 1.0
      ],
      "name": "Sketchfab_model"
    },
    {
      "children": [2, 3],
      "name": "NHMW-MIN-A143-lowres.obj.cleaner.materialmerger.gles"
    },
    {
      "mesh": 0,
      "name": "Object_2"
    },
    {
      "mesh": 1,
      "name": "Object_3"
    }
  ],
  "samplers": [
    {
      "magFilter": 9729,
      "minFilter": 9987,
      "wrapS": 10497,
      "wrapT": 10497
    }
  ],
  "scene": 0,
  "scenes": [
    {
      "name": "Sketchfab_Scene",
      "nodes": [0]
    }
  ],
  "textures": [
    {
      "sampler": 0,
      "source": 0
    }
  ]
}
