{
  "accessors": [
    {
      "bufferView": 2,
      "componentType": 5126,
      "count": 47312,
      "max": [3.687843084335327, 2.8918368816375732, 2.109323740005493],
      "min": [-3.5052669048309326, -2.732703924179077, -2.151026487350464],
      "type": "VEC3"
    },
    {
      "bufferView": 2,
      "byteOffset": 567744,
      "componentType": 5126,
      "count": 47312,
      "max": [0.9990664124488831, 0.999945878982544, 0.9999745488166809],
      "min": [-0.9996780753135681, -0.9999833703041077, -0.9999659061431885],
      "type": "VEC3"
    },
    {
      "bufferView": 1,
      "componentType": 5126,
      "count": 47312,
      "max": [0.9944734573364258, 0.9944460391998291],
      "min": [0.005526423454284668, 0.005526423454284668],
      "type": "VEC2"
    },
    {
      "bufferView": 1,
      "byteOffset": 378496,
      "componentType": 5126,
      "count": 47312,
      "max": [0.9944734573364258, 0.9944460391998291],
      "min": [0.005526423454284668, 0.005526423454284668],
      "type": "VEC2"
    },
    {
      "bufferView": 0,
      "componentType": 5125,
      "count": 246291,
      "type": "SCALAR"
    }
  ],
  "asset": {
    "extras": {
      "author": "Hailphilly (https://sketchfab.com/hailphilly)",
      "license": "CC-BY-4.0 (http://creativecommons.org/licenses/by/4.0/)",
      "source": "https://sketchfab.com/3d-models/meteorite-0a503e5bec784cbc9082e2f6b2d9f701",
      "title": "Meteorite"
    },
    "generator": "Sketchfab-15.19.0",
    "version": "2.0"
  },
  "bufferViews": [
    {
      "buffer": 0,
      "byteLength": 985164,
      "name": "floatBufferViews",
      "target": 34963
    },
    {
      "buffer": 0,
      "byteLength": 756992,
      "byteOffset": 985164,
      "byteStride": 8,
      "name": "floatBufferViews",
      "target": 34962
    },
    {
      "buffer": 0,
      "byteLength": 1135488,
      "byteOffset": 1742156,
      "byteStride": 12,
      "name": "floatBufferViews",
      "target": 34962
    }
  ],
  "buffers": [
    {
      "byteLength": 2877644,
      "uri": "scene.bin"
    }
  ],
  "extensionsUsed": ["KHR_materials_specular"],
  "images": [
    {
      "uri": "textures/Meteorite_Shader_Proxy_baseColor.webp"
    }
  ],
  "materials": [
    {
      "doubleSided": true,
      "extensions": {
        "KHR_materials_specular": {
          "specularColorFactor": [1.0, 1.0, 1.0],
          "specularFactor": 0.0
        }
      },
      "name": "Meteorite_Shader_Proxy",
      "pbrMetallicRoughness": {
        "baseColorTexture": {
          "index": 0
        },
        "metallicFactor": 0.0
      }
    }
  ],
  "meshes": [
    {
      "name": "Meteorite_Meteorite_Shader_Proxy_0",
      "primitives": [
        {
          "attributes": {
            "NORMAL": 1,
            "POSITION": 0,
            "TEXCOORD_0": 2,
            "TEXCOORD_1": 3
          },
          "indices": 4,
          "material": 0,
          "mode": 4
        }
      ]
    }
  ],
  "nodes": [
    {
      "children": [1],
      "matrix": [
        1.0, 0.0, 0.0, 0.0, 0.0, 2.220446049250313e-16, -1.0, 0.0, 0.0, 1.0,
        2.220446049250313e-16, 0.0, 0.0, 0.0, 0.0, 1.0
      ],
      "name": "Sketchfab_model"
    },
    {
      "children": [2],
      "matrix": [
        0.009999999776482582, 0.0, 0.0, 0.0, 0.0, 0.0, 0.009999999776482582,
        0.0, 0.0, -0.009999999776482582, 0.0, 0.0, 0.0, 0.0, 0.0, 1.0
      ],
      "name": "Meteorite_Final.fbx"
    },
    {
      "children": [3],
      "name": "RootNode"
    },
    {
      "children": [4],
      "matrix": [
        100.0, 0.0, 0.0, 0.0, 0.0, -1.629206793918314e-5, -99.99999999999868,
        0.0, 0.0, 99.99999999999868, -1.629206793918314e-5, 0.0, 0.0, 0.0, 0.0,
        1.0
      ],
      "name": "Meteorite"
    },
    {
      "mesh": 0,
      "name": "Meteorite_Meteorite_Shader_Proxy_0"
    }
  ],
  "samplers": [
    {
      "magFilter": 9729,
      "minFilter": 9987,
      "wrapS": 10497,
      "wrapT": 10497
    }
  ],
  "scene": 0,
  "scenes": [
    {
      "name": "Sketchfab_Scene",
      "nodes": [0]
    }
  ],
  "textures": [
    {
      "sampler": 0,
      "source": 0
    }
  ]
}
